
<svg xmlns="http://www.w3.org/2000/svg" viewBox="0 0 24 24">
  <path fill="#2f3640" d="M12 2.2c3.2 0 3.6 0 4.9.1 1.2.1 1.8.3 2.2.5.5.2.9.4 1.3.8.4.4.6.8.8 1.3.2.5.4 1 .5 2.2.1 1.3.1 1.7.1 4.9s0 3.6-.1 4.9c-.1 1.2-.3 1.8-.5 2.2-.2.5-.4.9-.8 1.3-.4.4-.8.6-1.3.8-.5.2-1 .4-2.2.5-1.3.1-1.7.1-4.9.1s-3.6 0-4.9-.1c-1.2-.1-1.8-.3-2.2-.5-.5-.2-.9-.4-1.3-.8-.4-.4-.6-.8-.8-1.3-.2-.5-.4-1-.5-2.2-.1-1.3-.1-1.7-.1-4.9s0-3.6.1-4.9c.1-1.2.3-1.8.5-2.2.2-.5.4-.9.8-1.3.4-.4.8-.6 1.3-.8.5-.2 1-.4 2.2-.5 1.3-.1 1.7-.1 4.9-.1zm0-2.2c-3.3 0-3.7 0-5 .1-1.3.1-2.2.4-3 .9-.8.5-1.5 1.2-2 2-.5.8-.8 1.7-.9 3C1.8 6.3 1.8 6.7 1.8 10s0 3.7.1 5c.1 1.3.4 2.2.9 3 .5.8 1.2 1.5 2 2 .8.5 1.7.8 3 .9 1.3.1 1.7.1 5 .1s3.7 0 5-.1c1.3-.1 2.2-.4 3-.9.8-.5 1.5-1.2 2-2 .5-.8.8-1.7.9-3 .1-1.3.1-1.7.1-5s0-3.7-.1-5c-.1-1.3-.4-2.2-.9-3-.5-.8-1.2-1.5-2-2-.8-.5-1.7-.8-3-.9-1.3-.1-1.7-.1-5-.1z"/>
  <path fill="#2f3640" d="M12 5.8a6.2 6.2 0 100 12.4 6.2 6.2 0 000-12.4zm0 10.2a4 4 0 110-8 4 4 0 010 8z"/>
  <circle cx="18.4" cy="5.6" r="1.4" fill="#2f3640"/>
</svg>
